{
    "asset" : {
        "generator" : "Khronos glTF Blender I/O v1.4.40",
        "version" : "2.0"
    },
    "scene" : 0,
    "scenes" : [
        {
            "name" : "Scene",
            "nodes" : [
                0,
                1,
                2
            ]
        }
    ],
    "nodes" : [
        {
            "mesh" : 0,
            "name" : "Reckless Division LOGO 1"
        },
        {
            "name" : "Sun"
        },
        {
            "name" : "Camera",
            "rotation" : [
                -0.02155248634517193,
                -0.01773166097700596,
                -0.0032347210217267275,
                0.9996052384376526
            ]
        }
    ],
    "materials" : [
        {
            "doubleSided" : true,
            "name" : "Material",
            "pbrMetallicRoughness" : {
                "baseColorTexture" : {
                    "index" : 0,
                    "texCoord" : 0
                },
                "metallicFactor" : 0,
                "roughnessFactor" : 0.4000000059604645
            }
        }
    ],
    "meshes" : [
        {
            "name" : "Reckless Division LOGO 1",
            "primitives" : [
                {
                    "attributes" : {
                        "POSITION" : 0,
                        "NORMAL" : 1
                    },
                    "indices" : 2,
                    "material" : 0
                }
            ]
        }
    ],
    "textures" : [
        {
            "sampler" : 0,
            "source" : 0
        }
    ],
    "images" : [
        {
            "mimeType" : "image/png",
            "name" : "Reckless_Division_LOGO_1",
            "uri" : "Reckless_Division_LOGO_1.png"
        }
    ],
    "accessors" : [
        {
            "bufferView" : 0,
            "componentType" : 5126,
            "count" : 377702,
            "max" : [
                40.082645416259766,
                5.21588659286499,
                47.314048767089844
            ],
            "min" : [
                -39.6694221496582,
                0.06569036841392517,
                -52.685951232910156
            ],
            "type" : "VEC3"
        },
        {
            "bufferView" : 1,
            "componentType" : 5126,
            "count" : 377702,
            "type" : "VEC3"
        },
        {
            "bufferView" : 2,
            "componentType" : 5125,
            "count" : 527844,
            "type" : "SCALAR"
        }
    ],
    "bufferViews" : [
        {
            "buffer" : 0,
            "byteLength" : 4532424,
            "byteOffset" : 0
        },
        {
            "buffer" : 0,
            "byteLength" : 4532424,
            "byteOffset" : 4532424
        },
        {
            "buffer" : 0,
            "byteLength" : 2111376,
            "byteOffset" : 9064848
        }
    ],
    "samplers" : [
        {
            "magFilter" : 9729,
            "minFilter" : 9986
        }
    ],
    "buffers" : [
        {
            "byteLength" : 11176224,
            "uri" : "untitled.bin"
        }
    ]
}
