<?xml version="1.0" standalone="no"?>
<!DOCTYPE svg PUBLIC "-//W3C//DTD SVG 20010904//EN"
 "http://www.w3.org/TR/2001/REC-SVG-20010904/DTD/svg10.dtd">
<svg version="1.0" xmlns="http://www.w3.org/2000/svg"
 width="1000.000000pt" height="1000.000000pt" viewBox="0 0 1000.000000 1000.000000"
 preserveAspectRatio="xMidYMid meet">

<g transform="translate(0.000000,1000.000000) scale(0.100000,-0.100000)"
fill="#000000" stroke="none">
<path d="M0 5000 l0 -5000 5000 0 5000 0 0 5000 0 5000 -5000 0 -5000 0 0
-5000z m5846 4629 c109 -84 154 -128 97 -94 -57 33 -257 189 -261 204 -5 16
18 1 164 -110z m-1381 46 c33 -9 95 -32 138 -52 71 -33 76 -38 55 -46 -12 -5
-81 -8 -153 -6 -132 2 -195 -6 -195 -23 0 -5 -13 -8 -29 -6 -22 2 -38 -6 -66
-32 -20 -19 -40 -45 -45 -57 -14 -34 -24 -28 -38 20 -6 23 -21 53 -32 67 l-20
25 -6 -22 c-4 -13 -13 -23 -21 -23 -8 0 -11 -5 -8 -10 4 -6 1 -9 -7 -8 -9 2
-12 -6 -10 -24 2 -18 -2 -28 -10 -28 -50 0 -378 -209 -378 -241 0 -17 -181
-136 -224 -147 -34 -8 -156 -85 -156 -99 0 -16 -41 -43 -75 -49 -46 -8 -309
-214 -326 -256 -16 -38 -83 -90 -111 -87 -29 4 -197 -119 -331 -243 -92 -85
-112 -117 -64 -102 20 6 21 5 7 -12 -29 -37 -55 -64 -62 -64 -5 0 -8 11 -8 25
0 30 -11 32 -35 5 -20 -22 -73 -51 -125 -69 -44 -14 -128 -85 -92 -77 22 4 23
3 8 -12 -8 -10 -20 -29 -26 -42 -8 -20 -9 -14 -5 32 10 117 10 118 376 378
182 129 372 264 422 299 51 35 155 109 232 164 77 55 273 195 435 310 162 116
344 248 404 294 80 62 111 80 117 71 7 -10 9 -9 9 3 0 15 51 59 68 59 6 0 17
11 25 24 9 13 44 38 79 56 59 30 68 31 143 27 44 -3 107 -13 140 -22z m1116
-6 c21 -21 21 -22 3 -33 -52 -29 -134 -11 -134 30 0 22 4 24 55 24 43 0 60 -5
76 -21z m-181 -35 c0 -8 -6 -14 -14 -14 -9 0 -12 7 -9 20 6 22 23 18 23 -6z
m-1425 -3 c-23 -23 -191 -151 -197 -151 -25 0 4 28 94 90 94 65 126 84 103 61z
m1680 -21 c10 -11 26 -18 35 -15 10 3 91 -51 224 -152 165 -124 205 -158 192
-165 -16 -9 -76 20 -366 176 -47 25 -96 46 -108 46 -34 0 -82 54 -79 90 1 15
5 26 9 24 4 -2 9 0 13 6 11 17 61 11 80 -10z m-115 -16 c0 -8 -5 -12 -10 -9
-6 4 -8 11 -5 16 9 14 15 11 15 -7z m-1190 -388 c0 -14 -4 -27 -9 -30 -15 -10
-41 5 -41 23 0 23 9 31 32 31 12 0 18 -7 18 -24z m-1770 -551 c0 -7 -287 -220
-380 -282 -91 -60 -100 -66 -100 -59 0 3 26 23 58 44 31 22 138 98 237 171
185 135 185 135 185 126z m5093 -348 c35 -32 37 -36 12 -21 -16 9 -55 36 -85
59 -30 22 -85 62 -122 88 -38 27 -68 52 -68 57 0 12 212 -135 263 -183z
m-3688 95 c-6 -4 -28 -23 -50 -42 l-40 -35 40 43 c21 23 44 42 49 42 6 0 6 -3
1 -8z m3477 -66 c32 -21 56 -42 53 -46 -2 -4 8 -13 23 -20 17 -8 22 -14 14
-17 -7 -3 -21 2 -31 11 -12 11 -27 14 -49 10 -29 -6 -37 -1 -82 45 -28 28 -50
53 -50 54 0 1 15 2 33 2 21 0 52 -13 89 -39z m-3112 -38 c0 -5 -6 -8 -14 -8
-9 0 -12 7 -9 21 4 16 8 17 14 7 5 -7 9 -16 9 -20z m3335 -120 c31 -21 75 -90
75 -118 0 -6 -19 10 -41 37 -23 26 -50 51 -60 55 -11 4 -19 17 -19 28 0 25 3
25 45 -2z m-4020 -48 c24 -20 19 -86 -7 -104 -35 -25 -83 -20 -107 10 -27 34
-27 68 0 95 17 17 29 20 61 16 21 -3 45 -11 53 -17z m2545 -19 c0 -9 -10 -35
-22 -58 -18 -34 -27 -42 -43 -37 -43 13 -58 61 -30 101 26 38 95 33 95 -6z
m-2153 -187 c-12 -12 -87 -16 -87 -5 0 6 20 11 47 11 25 0 44 -3 40 -6z m638
-74 c5 -7 -11 -61 -27 -93 -5 -10 -6 -22 -3 -27 4 -6 1 -10 -5 -10 -6 0 -20
-22 -32 -50 -22 -53 -34 -59 -85 -39 -33 12 -43 26 -43 60 0 14 -5 30 -11 36
-16 16 0 63 21 63 10 0 21 8 25 19 3 10 19 21 35 24 16 4 37 15 47 25 14 15
24 17 46 9 15 -5 29 -12 32 -17z m-982 0 c-3 -12 -8 -19 -11 -16 -5 6 5 36 12
36 2 0 2 -9 -1 -20z m787 -40 c0 -5 -7 -10 -15 -10 -8 0 -15 5 -15 10 0 6 7
10 15 10 8 0 15 -4 15 -10z m-332 -54 c12 -4 22 -13 22 -21 0 -7 6 -15 13 -18
9 -3 9 -8 1 -18 -6 -8 -18 -35 -28 -61 -22 -60 -50 -78 -124 -78 -59 0 -59 0
-54 28 4 23 3 25 -9 15 -12 -10 -15 -4 -17 39 -1 27 -6 56 -11 62 -7 9 0 12
27 11 24 -1 45 6 61 19 13 12 21 15 17 9 -11 -20 6 -15 39 12 16 13 32 20 35
16 3 -5 15 -11 28 -15z m592 -17 c0 -5 -4 -9 -10 -9 -5 0 -10 7 -10 16 0 8 5
12 10 9 6 -3 10 -10 10 -16z m-390 -19 c0 -5 -17 -10 -38 -10 -21 0 -43 -5
-50 -12 -6 -6 -15 -9 -19 -5 -3 4 2 14 13 22 22 16 94 20 94 5z m-2489 -254
c-6 -14 -15 -26 -21 -26 -14 0 -13 7 6 36 21 31 28 26 15 -10z m963 -21 c37
-34 32 -69 -9 -73 -17 -2 -33 2 -40 11 -7 9 -24 14 -43 13 -26 -2 -32 2 -32
18 0 56 77 75 124 31z m4154 -21 c-20 -21 -41 -34 -52 -32 -52 8 -12 62 47 65
l37 2 -32 -35z m1018 -86 c22 -24 59 -71 82 -106 40 -60 42 -67 42 -139 0 -66
-2 -74 -15 -63 -9 7 -13 15 -11 17 5 5 -47 163 -67 202 -7 13 -23 36 -37 51
-24 26 -90 141 -90 157 0 4 13 -11 28 -34 15 -23 46 -61 68 -85z m-6210 19
c-4 -16 -15 -26 -31 -29 -27 -6 -25 2 8 39 24 27 32 23 23 -10z m-40 -107 c27
0 17 -18 -63 -103 -17 -19 -22 -31 -15 -36 15 -9 -5 -78 -26 -86 -23 -9 -25
-1 -24 81 l2 75 52 59 c49 54 53 57 56 34 2 -13 10 -24 18 -24z m6459 -81 c4
-64 1 -58 -14 34 -6 31 -5 45 1 39 5 -5 11 -38 13 -73z m-4840 -58 c-8 -17
-17 -31 -19 -31 -7 0 6 44 17 58 17 22 19 5 2 -27z m620 -48 c-4 -10 -11 -35
-15 -56 -9 -45 -20 -60 -20 -26 0 37 20 99 32 99 6 0 7 -7 3 -17z m-1532 -86
c19 -43 51 -88 102 -142 74 -79 83 -105 31 -85 -44 16 -71 12 -97 -16 -13 -14
-50 -46 -82 -71 -32 -25 -62 -56 -67 -69 -7 -17 -17 -24 -35 -24 -18 0 -25 -5
-25 -19 0 -15 -12 -22 -51 -31 -33 -8 -53 -19 -56 -30 -2 -9 -21 -22 -41 -30
-20 -7 -65 -41 -99 -76 -58 -59 -64 -62 -107 -62 -38 1 -44 4 -34 15 18 22 2
26 -33 9 -18 -9 -33 -15 -35 -13 -6 5 -44 99 -44 107 0 5 9 10 20 12 29 4 460
438 460 462 0 12 -19 37 -42 57 -47 41 -45 60 5 40 49 -20 95 -25 112 -11 9 7
18 10 22 7 3 -4 17 3 31 13 13 11 28 20 31 20 4 0 19 -28 34 -63z m2637 36 c0
-3 -8 -16 -17 -27 -16 -19 -16 -19 -1 -7 10 7 22 11 29 9 11 -4 -21 -47 -70
-95 -31 -30 -50 -30 -25 0 10 12 2 6 -19 -12 -65 -61 -41 -11 42 87 40 48 61
63 61 45z m-2480 -38 c-7 -8 -16 -15 -21 -15 -13 0 -11 24 3 38 18 18 35 -3
18 -23z m1211 -12 c-68 -59 -111 -91 -134 -99 -13 -5 -17 -14 -14 -30 4 -21 2
-22 -17 -12 -12 6 -22 12 -24 13 -5 4 44 52 79 78 40 29 151 97 159 97 2 0
-19 -21 -49 -47z m-2171 -50 c0 -26 -2 -44 -4 -42 -8 9 -13 98 -5 93 5 -3 9
-26 9 -51z m1060 -39 c18 -25 29 -48 26 -51 -8 -8 -54 24 -66 46 -8 17 -5 51
6 51 1 0 17 -21 34 -46z m914 -80 c5 -14 4 -15 -9 -4 -17 14 -19 20 -6 20 5 0
12 -7 15 -16z m-4 -64 c-8 -5 -11 -10 -6 -10 5 0 3 -6 -3 -13 -6 -8 -8 -17 -4
-20 13 -14 -13 -6 -36 10 l-24 16 34 12 c43 16 59 18 39 5z m260 -35 c0 -25
-3 -45 -8 -45 -4 0 -6 20 -4 45 2 25 6 45 8 45 2 0 4 -20 4 -45z m-336 -81 c6
21 16 37 21 35 6 -2 9 -7 8 -11 -19 -56 -43 -167 -44 -200 -1 -42 -1 -42 -10
-13 -13 41 -16 205 -4 230 8 16 10 11 13 -30 l4 -50 12 39z m280 -36 c-4 -24
-10 -47 -15 -52 -5 -6 -9 -23 -9 -39 0 -16 -6 -43 -14 -60 -7 -18 -19 -52 -26
-77 -22 -81 -32 -102 -43 -91 -11 11 18 137 34 147 5 3 9 14 9 24 0 18 46 164
57 183 10 17 13 4 7 -35z m-834 -104 c-7 -13 -9 -31 -5 -41 4 -10 9 -79 10
-153 2 -100 1 -122 -6 -85 -15 92 -20 294 -7 318 11 20 12 21 16 3 2 -10 -2
-29 -8 -42z m254 -101 c47 -49 86 -91 86 -94 0 -3 -12 -12 -27 -20 -16 -7 -31
-15 -35 -17 -3 -2 -36 24 -73 57 -37 34 -72 61 -77 61 -13 0 -37 30 -38 46 0
17 40 54 60 54 10 0 56 -39 104 -87z m-1574 25 c0 -7 12 -37 25 -67 19 -39 23
-57 15 -65 -8 -8 -15 -5 -23 9 -25 41 -46 105 -41 120 7 18 24 20 24 3z m-95
-93 c6 -22 5 -27 -4 -19 -6 6 -14 35 -16 65 -4 44 -3 47 4 19 4 -19 12 -48 16
-65z m175 57 c0 -15 -2 -15 -10 -2 -13 20 -13 33 0 25 6 -3 10 -14 10 -23z
m6365 -158 c-9 -66 -21 -161 -27 -211 -6 -51 -15 -93 -20 -93 -11 0 -9 20 23
255 23 171 30 208 36 184 2 -9 -3 -70 -12 -135z m-5487 83 c22 -22 30 -39 26
-50 -8 -22 -22 -21 -59 3 -16 11 -38 20 -47 20 -21 0 -24 30 -6 48 21 21 53
13 86 -21z m4570 21 c7 -7 12 -17 12 -24 0 -14 -98 -66 -111 -58 -17 10 -9 38
18 66 28 30 61 36 81 16z m-2438 -10 c0 -7 -10 -14 -22 -14 -31 -2 -100 -29
-172 -65 -47 -25 -60 -28 -67 -17 -17 26 -8 37 39 44 26 3 56 11 67 17 11 6
49 18 85 27 36 10 66 18 68 19 1 0 2 -5 2 -11z m-440 -46 c0 -10 -6 -27 -14
-38 -14 -19 -15 -19 -29 0 -14 19 -54 20 -112 2 -11 -4 -4 1 15 10 30 15 110
40 133 43 4 1 7 -7 7 -17z m534 -3 c43 -25 48 -44 9 -34 -34 8 -53 23 -53 41
0 18 2 18 44 -7z m-1402 -48 c31 -28 31 -29 10 -35 -33 -11 -26 -26 11 -23 29
2 40 -7 116 -91 62 -69 81 -96 72 -105 -6 -6 -11 -19 -11 -29 0 -10 -8 -22
-17 -25 -10 -4 -24 -14 -31 -22 -10 -12 -15 -13 -18 -3 -3 6 -11 12 -18 12 -6
0 -43 32 -81 70 -38 39 -76 68 -83 65 -18 -7 -25 17 -13 47 13 34 3 42 -26 23
-22 -15 -24 -14 -32 8 -11 27 -29 43 -55 48 -16 4 -13 10 19 47 33 37 42 42
81 42 34 0 51 -6 76 -29z m993 -25 c16 -25 -1 -28 -39 -5 -22 13 -36 29 -36
41 0 20 0 20 33 -1 17 -11 36 -27 42 -35z m-1301 -63 c14 5 34 -74 28 -113
-12 -82 -55 9 -66 140 l-5 65 16 -48 c9 -26 21 -46 27 -44z m970 74 c-2 -7
-13 -18 -24 -25 -17 -11 -20 -10 -20 7 0 17 11 25 42 30 4 0 5 -5 2 -12z
m-264 -7 c0 -5 -2 -10 -4 -10 -3 0 -8 5 -11 10 -3 6 -1 10 4 10 6 0 11 -4 11
-10z m80 -5 c19 -10 30 -23 30 -36 0 -18 -4 -20 -26 -15 -27 7 -27 7 -20 -41
3 -27 3 -43 -3 -38 -10 11 -25 145 -16 145 3 0 19 -7 35 -15z m-194 -21 c-11
-8 -28 -14 -37 -14 -54 0 -70 -40 -16 -41 30 0 30 -1 10 -11 -33 -16 -55 -3
-51 29 3 24 11 31 53 45 54 18 71 15 41 -8z m69 -24 c3 -6 -1 -13 -10 -16 -19
-8 -30 0 -20 15 8 14 22 14 30 1z m-2141 -210 c3 -47 11 -142 18 -211 8 -92 8
-131 0 -145 -9 -16 -11 -9 -12 39 0 32 -4 99 -9 150 -15 141 -21 294 -12 272
5 -11 11 -58 15 -105z m2320 78 c17 -24 21 -58 8 -58 -5 0 -14 11 -20 25 -6
14 -16 25 -22 25 -5 0 -10 7 -10 15 0 22 27 18 44 -7z m-1209 -14 c0 -30 -40
-144 -49 -141 -13 5 -10 32 11 105 8 31 20 51 26 49 7 -2 12 -8 12 -13z m-452
-31 c4 -2 7 -10 7 -16 0 -9 -13 -11 -40 -9 -22 2 -40 6 -40 7 0 23 15 34 39
29 14 -4 29 -9 34 -11z m1497 -13 c-20 -13 -33 -13 -25 0 3 6 14 10 23 10 15
0 15 -2 2 -10z m-61 -49 c0 -14 -1 -14 -6 -1 -3 8 -10 24 -15 35 -9 20 -9 20
6 1 9 -11 16 -27 15 -35z m-1448 14 c0 -5 -14 -12 -31 -15 -20 -3 -37 -14 -46
-30 -7 -14 -13 -19 -14 -12 0 23 20 53 43 62 27 11 48 9 48 -5z m1409 -4 c16
-31 12 -47 -12 -48 -26 -2 -38 12 -38 45 0 28 35 30 50 3z m1830 -51 c-8 -5
-19 -10 -25 -10 -5 0 -3 5 5 10 8 5 20 10 25 10 6 0 3 -5 -5 -10z m-90 -30
c-8 -5 -22 -10 -30 -10 -13 0 -13 1 0 10 8 5 22 10 30 10 13 0 13 -1 0 -10z
m-1603 -80 c22 -31 10 -23 -32 22 -31 32 -33 36 -11 19 16 -12 36 -31 43 -41z
m-59 9 c20 -23 38 -45 40 -49 1 -3 -15 -12 -37 -18 -29 -9 -43 -21 -55 -46 -9
-19 -16 -38 -16 -44 0 -5 -11 -9 -25 -8 -28 1 -30 11 -19 128 6 62 9 67 33 71
14 2 29 5 34 6 4 0 24 -18 45 -40z m872 -68 c-1 -10 -50 53 -50 63 0 6 11 -5
25 -24 14 -19 25 -36 25 -39z m-1336 43 c3 -8 2 -12 -4 -9 -6 3 -10 10 -10 16
0 14 7 11 14 -7z m726 -24 c-20 -13 -33 -13 -25 0 3 6 14 10 23 10 15 0 15 -2
2 -10z m-109 -336 c105 -106 117 -115 143 -108 15 3 32 16 37 28 6 11 21 26
34 32 20 10 24 9 28 -7 3 -11 1 -21 -4 -24 -4 -3 -7 -47 -5 -98 3 -92 3 -92
45 -142 57 -66 -65 61 -250 262 -133 144 -157 173 -146 173 2 0 55 -52 118
-116z m-741 2 c-23 -59 -31 -68 -49 -56 -11 6 -12 12 -5 22 6 7 17 29 24 48
19 50 31 64 41 49 4 -7 -1 -35 -11 -63z m928 -302 c367 -400 364 -397 379
-359 5 14 7 14 24 -1 16 -15 19 -15 37 3 10 10 27 30 37 46 9 15 24 27 31 27
8 0 14 7 14 15 0 14 -130 160 -333 374 -54 57 -95 106 -92 109 8 8 150 -134
253 -253 48 -55 108 -124 135 -154 26 -29 55 -68 65 -86 31 -59 231 -284 271
-305 21 -10 53 -31 70 -46 l32 -27 -28 -17 -28 -17 -80 80 c-44 44 -107 103
-140 130 -33 27 -71 60 -84 73 -50 50 -119 13 -112 -58 1 -10 0 -18 -2 -18
-15 0 -219 201 -301 297 -52 61 -125 137 -161 169 -35 31 -87 87 -114 123 -27
36 -73 91 -101 121 -27 30 -64 73 -81 95 -40 52 80 -72 309 -321z m1532 307
c0 -11 -10 -45 -22 -76 -20 -54 -22 -56 -51 -49 -24 5 -29 3 -24 -9 7 -20 -7
-24 -66 -21 -29 1 -56 9 -68 19 -41 38 -100 -29 -70 -78 10 -16 10 -21 -1 -28
-18 -12 -28 -11 -28 1 0 6 -7 10 -15 10 -8 0 -15 -4 -15 -10 0 -5 6 -10 14
-10 8 0 16 -5 18 -11 2 -7 12 -7 31 2 21 10 30 10 39 1 7 -7 21 -12 32 -12 25
0 83 44 91 69 7 24 36 36 46 19 4 -6 4 -19 -1 -28 -16 -30 -89 -124 -166 -212
-81 -95 -114 -111 -114 -59 0 17 -5 33 -11 36 -6 5 -3 13 10 22 12 8 21 23 21
34 0 31 -54 22 -58 -8 -3 -23 -22 -33 -22 -11 0 6 -3 9 -6 6 -3 -4 -4 -9 -2
-11 4 -7 -43 -57 -55 -57 -5 0 -6 8 -2 18 4 9 8 26 9 37 1 23 52 123 94 186
37 55 56 99 76 172 18 61 31 71 45 34 12 -31 37 -51 57 -43 8 3 24 1 34 -4 16
-8 25 -2 55 35 30 36 42 44 60 39 13 -3 26 -1 29 5 12 18 36 12 36 -8z m-3833
-163 c-3 -7 -5 -2 -5 12 0 14 2 19 5 13 2 -7 2 -19 0 -25z m2399 -26 c-9 -8
-14 0 -21 33 l-6 30 16 -28 c9 -16 14 -31 11 -35z m565 -4 c11 -21 11 -22 -4
-9 -10 7 -17 17 -17 22 0 15 9 10 21 -13z m-22 -37 c8 -14 5 -21 -14 -31 -20
-11 -27 -11 -40 0 -15 12 -14 15 7 32 29 22 35 22 47 -1z m2248 -93 c25 -23
29 -57 12 -90 -11 -20 -12 -19 -40 11 -39 44 -39 93 0 100 3 1 15 -9 28 -21z
m-4261 -3 c10 -25 -5 -63 -26 -70 -11 -4 -18 -11 -15 -16 4 -5 0 -9 -8 -9 -30
0 -37 63 -10 92 20 22 51 24 59 3z m1634 -30 c14 -19 14 -19 -2 -6 -10 7 -18
18 -18 24 0 6 1 8 3 6 1 -2 9 -13 17 -24z m-1035 -29 c-11 -8 -23 -12 -28 -9
-5 3 -17 -3 -27 -12 -10 -9 -24 -14 -30 -10 -6 4 -29 -5 -51 -21 -22 -15 -42
-24 -45 -21 -16 16 125 86 175 87 24 0 24 -1 6 -14z m1076 -13 c13 -16 12 -17
-3 -4 -17 13 -22 21 -14 21 2 0 10 -8 17 -17z m-2531 -48 c10 -12 10 -21 1
-41 -6 -14 -11 -35 -11 -47 -1 -21 -1 -22 -15 -3 -20 26 -20 106 -1 106 7 0
19 -7 26 -15z m2580 -6 c0 -6 -4 -7 -10 -4 -5 3 -10 11 -10 16 0 6 5 7 10 4 6
-3 10 -11 10 -16z m670 -20 c0 -6 -4 -7 -10 -4 -5 3 -10 11 -10 16 0 6 5 7 10
4 6 -3 10 -11 10 -16z m2701 -22 c-10 -9 -11 -8 -5 6 3 10 9 15 12 12 3 -3 0
-11 -7 -18z m97 -21 c-6 -49 -49 -120 -88 -145 -20 -13 -17 -6 17 42 27 38 44
75 49 103 8 58 28 58 22 0z m-5342 -37 c36 -17 63 -33 61 -36 -3 -2 -36 12
-73 31 -85 43 -77 47 12 5z m1984 -21 c0 -4 -4 -8 -10 -8 -5 0 -10 7 -10 15 0
9 -7 18 -15 21 -8 4 -15 11 -15 17 0 6 11 0 25 -13 14 -13 25 -27 25 -32z
m520 38 c0 -3 -4 -8 -10 -11 -5 -3 -10 -1 -10 4 0 6 5 11 10 11 6 0 10 -2 10
-4z m1098 -100 c57 -20 53 -38 -5 -22 -26 8 -65 17 -86 21 -51 8 -87 25 -87
41 0 12 76 -5 178 -40z m372 -68 c-22 -22 -40 -47 -40 -56 0 -15 -1 -15 -16 0
-15 15 -15 19 4 51 22 35 58 58 79 50 7 -3 -4 -21 -27 -45z m-2242 4 c-1 -15
1 -33 5 -39 10 -16 -20 -24 -32 -9 -6 7 -8 27 -5 45 8 39 35 42 32 3z m1012
-60 c3 -2 -9 0 -25 4 -37 8 -39 10 -30 24 5 8 13 6 28 -7 12 -10 24 -19 27
-21z m1606 -98 c30 -36 35 -47 24 -54 -17 -11 -30 -4 -30 16 0 16 -16 19 -25
3 -4 -6 -14 4 -24 23 -9 18 -22 32 -29 31 -7 -2 -12 3 -12 11 0 7 -7 19 -15
26 -8 7 -12 16 -9 21 10 16 82 -30 120 -77z m-2697 -59 c-3 -2 -27 21 -54 53
l-48 57 54 -52 c29 -29 51 -55 48 -58z m-1024 55 c3 -5 1 -10 -4 -10 -6 0 -11
5 -11 10 0 6 2 10 4 10 3 0 8 -4 11 -10z m3615 -28 c0 -14 -9 -18 -40 -19 -27
-1 -40 2 -40 11 0 20 11 26 47 26 25 0 33 -4 33 -18z m-2570 -137 c0 -29 -14
-85 -20 -85 -5 0 -8 20 -8 45 1 24 5 42 10 39 17 -11 6 4 -43 56 -28 30 -55
64 -61 75 -5 11 20 -11 56 -50 36 -38 66 -74 66 -80z m-2140 63 c0 -6 -13 6
-30 27 -16 21 -30 41 -30 44 1 11 60 -59 60 -71z m1180 6 c0 -8 -4 -12 -10 -9
-5 3 -10 10 -10 16 0 5 5 9 10 9 6 0 10 -7 10 -16z m1858 -16 c-13 -39 -25
-54 -54 -62 -17 -5 -22 -3 -20 10 2 33 -23 25 -53 -16 -20 -27 -32 -37 -37
-29 -10 17 84 102 127 116 49 16 49 16 37 -19z m-1001 -25 c61 -78 55 -87 -7
-13 -23 28 -37 50 -32 50 6 0 23 -17 39 -37z m2743 1 c0 -26 -17 -33 -26 -9
-8 20 3 48 16 40 5 -3 10 -17 10 -31z m-4737 -70 c8 -28 11 -57 7 -64 -8 -13
-40 80 -40 116 0 30 17 3 33 -52z m2122 16 c-9 -41 -17 -33 -9 9 4 17 9 30 11
27 3 -2 2 -19 -2 -36z m3256 -30 c-9 -27 -22 -55 -29 -62 -13 -13 -7 14 20 85
18 48 26 29 9 -23z m-2553 -72 c57 -60 14 -77 -50 -21 -23 21 -32 67 -17 95
l12 23 10 -30 c5 -17 26 -47 45 -67z m2407 -8 c-16 -50 -67 -120 -86 -120 -5
0 1 17 15 38 13 20 35 61 50 91 33 65 44 60 21 -9z m76 -87 c-5 -10 -24 -26
-43 -36 -32 -19 -32 -18 7 17 46 41 49 42 36 19z m-1731 -304 c0 -5 -9 -18
-20 -29 -19 -19 -20 -19 -20 -1 0 32 11 50 26 44 8 -3 14 -9 14 -14z m-105
-89 c-20 -38 -2 -40 32 -4 l25 27 24 -43 c28 -49 30 -63 9 -80 -11 -9 -21 -6
-49 15 -20 15 -42 25 -50 22 -16 -6 -46 22 -46 43 0 20 31 50 52 50 17 0 18
-2 3 -30z m1772 -220 c4 -14 14 -20 35 -20 25 0 29 -4 25 -19 -2 -10 4 -29 14
-42 10 -13 19 -28 19 -33 0 -9 23 -47 72 -119 23 -34 24 -139 1 -207 -19 -55
-62 -265 -63 -301 0 -15 -9 -37 -19 -51 l-20 -25 57 -36 c61 -40 212 -189 302
-299 30 -37 66 -70 80 -74 14 -4 30 -11 37 -16 7 -5 26 -7 43 -3 35 8 38 -1 9
-26 -17 -15 -19 -21 -9 -39 8 -15 17 -19 33 -15 19 5 20 5 5 -5 -10 -6 -18
-19 -18 -29 0 -10 -9 -21 -20 -24 -16 -4 -20 -14 -20 -45 0 -22 -5 -76 -10
-119 -10 -72 -15 -93 -36 -148 -4 -11 -14 -40 -23 -65 -31 -87 -126 -116 -190
-58 -36 34 -77 58 -97 58 -9 0 -28 9 -43 20 -16 10 -49 26 -75 35 -25 9 -90
45 -143 80 -53 36 -103 65 -112 65 -9 0 -43 14 -76 31 -56 28 -194 79 -215 79
-5 0 -26 -10 -47 -22 -42 -25 -129 -58 -152 -58 -27 0 2 17 69 40 36 12 79 33
95 45 l30 23 95 -37 c52 -21 114 -47 137 -59 23 -12 50 -22 60 -22 15 0 79
-37 118 -67 37 -30 119 -76 148 -84 19 -5 51 -20 71 -34 20 -14 45 -25 56 -25
10 0 22 -4 25 -10 3 -5 13 -10 22 -10 8 0 23 -11 34 -24 10 -13 32 -29 49 -36
37 -15 83 1 108 38 38 58 79 222 83 327 3 97 1 111 -13 97 -7 -7 -15 -12 -19
-12 -8 0 -22 59 -19 84 4 36 -147 224 -271 336 -46 41 -90 80 -99 85 -98 61
-105 69 -71 80 24 7 31 24 42 105 13 99 34 200 52 250 9 25 17 75 17 112 0 55
-4 73 -27 107 -19 29 -32 40 -44 36 -11 -4 -25 5 -43 27 l-25 33 -7 -43 c-4
-23 -10 -42 -14 -42 -9 0 -20 36 -20 68 0 25 -7 27 -34 7 -10 -8 -23 -12 -28
-9 -5 3 -7 0 -6 -7 2 -6 -3 -14 -9 -16 -8 -3 -13 4 -14 19 l0 23 -10 -24 c-5
-13 -31 -49 -57 -80 -27 -31 -58 -70 -70 -87 -12 -18 -39 -39 -59 -47 -21 -9
-55 -34 -77 -56 -21 -23 -42 -41 -47 -41 -4 0 -11 -10 -15 -22 -4 -13 -29 -48
-55 -77 -27 -30 -49 -65 -49 -77 0 -35 25 -96 59 -144 18 -25 42 -61 55 -80
22 -33 92 -90 110 -90 5 0 36 -12 70 -26 33 -15 75 -32 91 -39 17 -7 55 -25
86 -39 31 -14 64 -26 73 -26 18 0 76 -37 89 -57 4 -7 14 -13 22 -13 8 0 41
-26 74 -57 32 -32 82 -78 110 -102 28 -25 51 -48 51 -53 0 -11 -107 -58 -132
-58 -27 0 -197 57 -225 76 -12 8 -37 14 -54 14 -30 0 -79 18 -149 55 -14 7
-70 25 -125 40 -66 18 -106 35 -117 49 -23 27 -22 29 7 64 36 43 32 102 -6
102 -11 0 -28 5 -38 12 -15 9 -24 8 -44 -5 -35 -23 -106 -9 -155 30 -20 17
-58 39 -84 51 -53 23 -55 26 -33 48 8 8 20 34 26 57 6 23 15 50 20 59 5 10 9
25 9 33 0 24 40 138 55 155 7 8 15 29 18 45 3 17 9 42 12 57 11 41 -22 103
-69 135 -35 24 -53 28 -123 30 -68 2 -84 0 -95 -15 -7 -9 -35 -32 -63 -51 -27
-19 -66 -49 -86 -67 -20 -17 -54 -37 -75 -44 -22 -7 -56 -27 -78 -44 -37 -30
-48 -42 -93 -95 -21 -25 -22 -25 -36 -7 -14 19 -17 19 -113 3 -124 -21 -223
-29 -389 -32 -189 -2 -245 -26 -245 -104 0 -31 6 -44 29 -63 l28 -24 -29 -33
c-25 -28 -29 -39 -23 -70 14 -79 14 -79 110 -82 77 -2 323 38 352 57 12 7 30
14 40 14 10 0 41 9 68 19 38 14 51 24 53 42 3 27 11 25 -138 29 -52 1 -101 5
-110 10 -8 4 -52 3 -97 -3 -65 -8 -87 -8 -114 4 l-34 14 40 8 c22 4 67 11 100
16 54 7 58 12 16 23 -7 2 50 14 128 27 86 15 140 28 138 35 -7 22 61 46 130
45 49 -1 62 -4 49 -11 -24 -14 -14 -51 29 -101 34 -40 38 -68 7 -46 -10 6 12
-16 46 -50 35 -33 74 -63 85 -67 27 -8 218 -88 273 -115 22 -10 45 -19 52 -19
6 0 32 -15 58 -32 25 -18 53 -37 62 -43 9 -5 34 -22 55 -38 22 -15 50 -27 62
-27 43 0 38 -30 -8 -50 -46 -21 -116 -25 -187 -9 -25 5 -63 12 -85 15 -41 6
-152 42 -170 54 -5 4 -46 20 -90 35 -112 37 -175 66 -175 81 0 6 11 19 25 28
30 20 35 73 8 82 -10 3 -27 9 -38 14 -11 4 -51 7 -90 6 -67 -1 -70 -2 -90 -33
l-20 -32 -90 1 c-49 0 -124 -7 -165 -17 -59 -13 -103 -15 -208 -10 -96 4 -138
3 -148 -6 -17 -14 -19 -91 -3 -121 6 -11 9 -21 7 -23 -2 -1 -36 -6 -75 -9 -66
-7 -73 -6 -73 11 0 21 59 223 90 308 15 40 20 71 16 96 -4 24 1 57 14 95 12
33 21 75 21 94 0 33 -6 165 -9 203 -2 12 -11 17 -31 17 -35 0 -46 -12 -61 -68
-19 -71 -71 -196 -91 -217 -25 -27 -124 -304 -144 -403 -9 -42 -21 -38 -52 18
-14 25 -29 47 -34 48 -5 2 -9 9 -9 15 0 7 -13 25 -30 40 -16 16 -30 35 -30 42
0 7 -7 18 -15 25 -14 11 -14 15 2 33 10 10 40 30 66 43 26 14 52 35 57 48 5
14 28 31 60 45 45 19 51 25 49 49 -1 15 4 39 11 54 16 34 8 56 -26 64 -21 5
-52 -5 -138 -47 -61 -30 -123 -63 -138 -73 -35 -24 -44 -16 -28 24 10 24 10
33 -1 46 -11 14 -26 15 -84 10 -133 -11 -146 -19 -165 -101 -7 -27 -8 -27 -9
-6 -1 27 -27 61 -46 61 -6 0 -26 11 -45 25 -22 16 -37 21 -45 15 -7 -6 -25 -6
-49 1 -43 12 -71 3 -145 -43 -25 -15 -54 -28 -66 -28 -13 0 -35 -19 -60 -51
-22 -28 -45 -56 -50 -63 -24 -26 -53 -76 -100 -171 l-50 -100 -140 -11 c-144
-12 -180 -21 -325 -84 -120 -52 -124 -54 -145 -51 -11 2 -27 9 -36 17 -8 8
-19 14 -23 14 -11 0 -170 116 -191 140 -10 11 -24 20 -30 20 -7 0 -19 7 -26
16 -8 9 -42 35 -78 57 l-64 41 49 14 c27 7 56 20 66 29 9 8 49 19 88 24 81 12
138 37 157 71 16 30 16 152 -1 256 -14 90 -30 115 -92 148 -18 10 -34 21 -34
25 0 9 -73 37 -208 80 l-62 20 6 39 c6 37 4 40 -75 119 -100 100 -131 104
-147 22 -5 -23 -11 -30 -21 -27 -8 4 -38 9 -67 12 -72 9 -80 -3 -77 -120 1
-45 2 -48 15 -31 13 18 14 18 21 -4 3 -12 4 -39 0 -60 -6 -37 -5 -39 45 -71
l52 -33 -6 -51 c-4 -28 -13 -124 -20 -214 l-14 -163 -61 -71 c-34 -40 -61 -77
-61 -84 0 -6 -6 -17 -14 -23 -20 -16 -96 -167 -96 -189 0 -10 -5 -23 -11 -29
-6 -6 -9 -21 -7 -34 4 -33 52 -39 70 -10 7 12 20 21 28 21 23 0 40 20 40 47 0
15 14 32 44 52 l43 30 7 -76 c3 -42 10 -81 15 -87 5 -6 12 -65 16 -131 6 -108
15 -178 45 -370 23 -138 39 -173 78 -161 16 6 22 19 27 61 4 29 4 73 -1 97
-10 56 -6 90 13 103 13 10 15 51 15 278 0 169 4 267 10 267 5 0 34 -7 63 -16
47 -13 87 -34 203 -106 15 -9 33 -17 39 -17 7 -1 37 -17 67 -36 30 -19 62 -35
71 -35 9 0 19 -8 22 -19 8 -33 57 -60 110 -61 64 -2 126 9 138 24 13 16 86 34
165 40 36 3 82 10 103 16 32 9 37 15 37 40 0 21 -6 31 -22 36 -22 7 -21 8 12
23 19 9 46 24 60 32 14 9 38 20 53 23 l29 7 -7 -55 c-16 -128 18 -167 149
-170 77 -1 84 1 146 37 110 64 165 99 170 106 3 4 35 22 72 41 38 18 75 42 85
52 25 28 33 22 33 -28 0 -79 19 -134 54 -155 17 -10 39 -19 48 -19 21 0 48 37
48 65 0 11 9 26 20 33 11 7 20 22 20 35 0 13 5 28 11 34 6 6 13 38 16 72 3 33
9 61 14 61 4 0 21 -19 37 -42 17 -24 62 -76 101 -117 49 -51 68 -78 61 -85
-13 -13 -13 -50 2 -98 17 -58 72 -93 134 -84 28 3 43 2 39 -4 -10 -16 41 -11
55 5 7 8 22 14 34 14 17 -1 17 -2 4 -6 -10 -2 -18 -8 -18 -12 0 -4 -18 -14
-39 -21 -32 -10 -49 -10 -92 0 -87 21 -122 49 -137 108 -8 27 -11 65 -7 83 5
31 0 40 -62 105 -38 40 -72 80 -78 89 -17 29 -30 21 -36 -23 -3 -23 -11 -48
-17 -54 -7 -7 -12 -24 -12 -39 0 -15 -6 -29 -14 -32 -8 -3 -17 -19 -21 -36 -9
-43 -30 -61 -69 -61 -63 0 -95 43 -111 148 -4 24 -10 42 -13 40 -43 -20 -132
-71 -246 -142 l-140 -86 -86 0 c-75 0 -90 3 -123 25 -41 28 -46 41 -49 133
l-3 63 -53 -28 c-35 -18 -49 -30 -42 -37 14 -14 13 -62 -2 -73 -27 -19 -87
-33 -167 -38 -77 -5 -105 -13 -141 -42 -9 -7 -53 -15 -98 -19 -77 -6 -84 -5
-122 20 -22 14 -40 30 -40 35 0 9 -89 62 -190 113 -54 27 -68 35 -123 72 -16
10 -43 22 -60 27 -18 4 -42 11 -54 14 l-23 7 -1 -213 c-1 -118 0 -234 0 -258
1 -25 -5 -51 -12 -60 -21 -24 -26 -58 -15 -98 12 -45 2 -138 -18 -158 -21 -21
-57 -19 -78 4 -10 11 -25 61 -36 122 -10 57 -21 111 -24 119 -3 8 -12 103 -21
210 -9 107 -20 199 -26 204 -5 6 -9 39 -9 74 l0 63 -30 -18 c-17 -10 -30 -26
-30 -37 0 -22 -37 -66 -55 -66 -7 0 -20 -9 -30 -20 -22 -24 -43 -25 -73 -4
-25 17 -29 56 -7 74 8 7 15 22 15 34 0 25 58 142 89 183 12 14 21 31 21 37 0
6 27 41 60 78 51 56 60 72 60 105 0 21 4 67 10 103 5 36 12 110 15 166 l7 100
-27 18 c-26 17 -27 17 -20 -3 9 -30 -16 -27 -46 5 -17 19 -31 24 -49 20 -23
-4 -26 -2 -26 32 -1 20 -3 44 -5 52 -2 9 4 16 17 18 20 3 22 11 26 94 5 112
15 123 101 113 49 -5 58 -4 64 12 11 33 36 53 65 53 22 0 47 -18 111 -79 76
-73 82 -82 82 -119 l0 -41 75 -26 c41 -14 90 -30 108 -35 57 -14 192 -118 192
-148 1 -15 2 -15 13 -2 29 38 61 50 129 50 38 0 76 -4 86 -10 9 -5 80 -33 157
-60 77 -28 154 -57 170 -65 17 -7 77 -28 135 -46 115 -35 140 -51 140 -85 0
-48 -56 -72 -129 -55 -37 8 -45 7 -63 -11 -17 -17 -28 -19 -67 -14 -25 3 -98
9 -161 12 l-115 7 -61 -37 c-55 -33 -68 -37 -120 -34 -50 3 -60 6 -70 27 l-12
24 -16 -32 c-22 -41 -97 -78 -182 -90 -36 -6 -73 -16 -83 -24 -9 -8 -29 -17
-45 -21 l-29 -7 54 -36 c30 -20 56 -39 59 -42 3 -4 17 -12 33 -18 15 -7 27
-17 27 -22 0 -12 153 -122 209 -150 31 -16 46 -20 54 -12 6 6 19 11 28 11 9 0
52 17 95 39 125 61 194 79 332 86 102 6 124 10 129 24 23 76 162 311 185 311
4 0 13 11 20 24 22 40 191 174 222 176 5 0 3 -7 -4 -15 -11 -13 -8 -15 16 -15
33 0 111 -37 169 -80 46 -33 55 -36 55 -15 0 26 45 45 133 57 76 10 88 9 111
-6 16 -10 26 -26 26 -41 0 -14 2 -25 5 -25 3 0 59 27 125 60 66 33 129 60 139
60 11 0 32 -11 48 -24 26 -23 27 -26 15 -58 -6 -19 -12 -46 -12 -61 0 -19 -10
-33 -37 -52 -21 -14 -43 -25 -50 -25 -7 0 -20 -11 -29 -25 -9 -14 -36 -37 -60
-51 -23 -14 -47 -31 -54 -39 -14 -17 -3 -37 63 -118 26 -32 47 -64 47 -72 0
-8 4 -16 9 -19 5 -3 16 25 25 62 24 96 105 312 131 347 21 30 85 183 85 206 0
6 10 29 22 50 17 31 28 39 49 39 48 0 56 -19 64 -149 6 -109 5 -127 -15 -186
-15 -44 -20 -77 -16 -100 4 -22 0 -51 -13 -86 -24 -65 -76 -231 -86 -276 -6
-31 -5 -33 22 -33 64 0 70 6 65 69 -4 54 -2 59 24 80 24 19 38 22 77 18 l49
-4 -28 22 c-22 18 -28 31 -32 78 -3 42 0 63 12 82 16 24 16 27 -4 52 -26 34
-26 92 0 126 35 44 101 58 287 62 161 3 247 11 380 37 50 9 65 9 77 -2 14 -11
22 -6 59 32 54 57 103 93 147 107 34 11 148 93 200 144 19 18 41 26 86 32 111
12 193 -26 235 -110 21 -42 21 -48 9 -102 -7 -32 -18 -65 -25 -73 -15 -20 -39
-83 -59 -155 -32 -116 -40 -140 -50 -153 -10 -14 7 -32 30 -32 6 0 32 -16 57
-36 52 -40 130 -62 154 -43 14 13 82 5 114 -12 26 -14 26 -82 0 -116 -11 -13
-17 -31 -14 -38 7 -19 51 -40 115 -55 60 -14 68 -17 160 -59 37 -17 87 -34
110 -37 24 -4 52 -13 63 -20 31 -20 176 -64 211 -64 18 0 50 8 73 18 l41 19
-106 99 c-58 54 -111 101 -117 103 -7 2 -32 19 -56 38 -26 19 -56 33 -72 33
-15 0 -30 4 -33 9 -3 4 -27 16 -53 26 -104 39 -250 109 -283 135 -43 34 -143
180 -160 233 -17 53 -5 89 46 143 24 26 44 52 44 57 0 17 130 137 149 137 28
0 162 161 182 218 5 16 32 45 59 65 37 27 50 44 50 62 0 30 20 33 27 5z
m-3047 -3 c0 -20 -37 -51 -45 -38 -3 6 -3 17 2 24 4 6 -5 4 -21 -6 -15 -10
-30 -16 -33 -14 -6 6 66 46 85 47 6 0 12 -6 12 -13z m-109 -90 c-5 -5 -17 -7
-26 -3 -14 5 -15 9 -5 21 10 12 16 13 27 4 9 -8 10 -16 4 -22z m164 3 c3 -5 4
-10 1 -10 -2 0 -12 -3 -20 -6 -12 -5 -15 -2 -10 10 7 18 20 21 29 6z m51 -93
c15 -29 39 -64 55 -79 20 -18 29 -37 29 -57 0 -30 -1 -31 -49 -28 -34 1 -47 6
-44 15 3 7 0 26 -7 42 -9 23 -17 29 -31 25 -10 -3 -32 1 -48 9 -17 9 -41 16
-54 16 -14 0 -27 7 -31 15 -3 8 -1 15 4 15 5 0 24 13 42 28 37 33 89 61 101
55 4 -3 19 -28 33 -56z m934 -97 c-8 -5 -17 -7 -19 -4 -3 3 1 9 9 14 8 5 17 7
19 4 3 -3 -1 -9 -9 -14z m-140 -59 c0 -5 -13 -14 -30 -19 -28 -10 -29 -10 -17
9 12 19 47 27 47 10z m-2639 -195 c60 -18 189 -77 189 -86 0 -10 -77 -37 -124
-44 -21 -3 -57 -14 -79 -25 -23 -12 -45 -17 -49 -13 -9 9 1 182 11 182 3 0 27
-6 52 -14z m4679 -66 c0 -25 33 -92 66 -137 13 -17 24 -34 24 -37 0 -13 -39
-5 -133 26 l-97 31 35 30 c20 16 47 47 61 68 27 43 44 50 44 19z m-875 -112
c9 -42 42 -115 55 -123 13 -8 13 -25 -1 -25 -5 0 -29 9 -52 19 -23 10 -62 25
-87 32 -61 17 -67 25 -34 42 16 9 45 31 63 51 19 20 38 36 42 36 4 0 11 -15
14 -32z m-2890 -98 c3 -5 20 -10 36 -10 41 0 95 -24 108 -48 27 -51 3 -84 -74
-102 -28 -7 -67 -20 -87 -31 -20 -10 -48 -19 -61 -19 -43 0 -181 -40 -209 -60
-16 -12 -51 -22 -92 -26 -86 -9 -110 6 -125 77 -10 48 -9 55 13 94 42 70 83
95 189 110 161 24 292 31 302 15z m806 -77 c-9 -16 -10 -15 -11 9 0 14 3 35 8
45 6 15 8 14 10 -9 2 -15 -1 -35 -7 -45z m-198 -47 c65 -49 86 -60 140 -66 26
-3 48 -9 48 -14 0 -6 -32 -20 -73 -33 -40 -13 -77 -28 -83 -32 -5 -4 -50 -30
-100 -56 -49 -26 -115 -63 -146 -81 -31 -19 -59 -34 -61 -34 -10 0 29 100 45
118 10 10 17 28 17 40 0 12 9 27 21 34 11 7 27 28 36 46 9 19 26 38 37 44 12
5 31 22 41 39 11 16 23 29 27 29 3 0 26 -15 51 -34z m1737 -283 c45 -61 117
-110 227 -158 199 -85 224 -95 241 -95 19 -1 110 -31 131 -44 10 -7 12 -6 6 4
-6 10 0 11 26 5 63 -14 179 -11 189 5 7 11 10 11 10 2 0 -7 5 -10 10 -7 6 4 8
11 5 16 -4 5 0 9 7 10 7 0 25 2 41 3 38 2 34 -10 -8 -24 -19 -6 -35 -17 -35
-25 0 -50 -118 -52 -260 -3 -58 20 -121 40 -140 44 -19 3 -60 18 -90 32 -30
14 -64 28 -75 32 -132 49 -264 133 -301 191 -22 36 -29 40 -52 34 -15 -4 -63
-13 -107 -20 -136 -22 -158 -31 -190 -75 -24 -32 -41 -43 -85 -56 -30 -8 -65
-19 -78 -25 -13 -5 -33 -9 -45 -9 -12 0 -49 -9 -82 -20 -33 -10 -77 -22 -97
-25 -23 -3 -39 -12 -42 -23 -2 -9 -4 -6 -3 8 2 21 9 26 57 36 30 6 114 27 187
47 105 28 138 41 161 63 15 16 31 36 34 44 6 17 111 44 208 55 30 3 62 10 70
15 28 18 45 10 80 -37z m1085 -403 c17 -48 5 -45 -19 4 -18 39 -23 84 -5 54 5
-10 16 -36 24 -58z m-2150 -125 l0 -180 -50 0 -50 0 -3 177 -2 177 32 4 c78
10 73 23 73 -178z m310 176 c77 0 151 2 165 2 24 2 25 -1 25 -53 l0 -55 -109
-3 -109 -3 112 -114 c62 -63 110 -119 106 -124 -8 -14 -142 -14 -150 -1 -5 8
-11 8 -20 0 -8 -7 -66 -10 -161 -8 l-149 3 0 55 0 55 109 3 110 3 -115 115
c-129 130 -131 139 -19 129 36 -3 128 -5 205 -4z m310 -176 l0 -180 -50 0 -50
0 -3 170 c-1 93 0 175 3 183 3 9 20 12 52 10 l48 -3 0 -180z m503 0 c2 -174 2
-177 -18 -172 -11 3 -23 1 -26 -4 -3 -5 -80 -9 -172 -9 l-166 0 -48 47 -48 47
0 134 c0 129 1 134 20 129 11 -3 23 -1 26 5 4 6 83 8 218 5 l211 -4 3 -178z
m277 65 l115 -115 0 112 0 111 51 4 c28 1 53 1 55 -1 2 -2 4 -73 4 -158 0
-106 -3 -153 -11 -153 -8 0 -8 -4 1 -15 20 -24 1 -35 -63 -35 l-62 0 -115 115
-115 115 -5 -112 -5 -113 -50 0 -50 0 -1 175 c-1 96 0 179 3 184 3 4 34 6 70
4 l64 -4 114 -114z m-2311 -59 c94 -95 165 -174 161 -180 -8 -14 -142 -14
-150 -1 -5 8 -11 8 -20 0 -8 -7 -72 -10 -181 -8 l-169 3 -3 178 -2 177 98 0
98 0 168 -169z m284 -8 l-3 -178 -50 0 -50 0 -3 178 -2 177 55 0 55 0 -2 -177z
m132 65 l0 -113 113 113 112 112 73 0 c39 0 72 -3 72 -8 0 -4 -78 -85 -173
-180 l-173 -173 -65 3 -64 3 -3 178 -3 177 55 0 56 0 0 -112z"/>
<path d="M2016 6604 c-20 -19 -20 -24 -1 -24 8 0 15 6 15 14 0 8 6 17 13 19 8
4 9 6 0 6 -6 1 -19 -6 -27 -15z"/>
<path d="M1917 6499 c-32 -34 -48 -69 -33 -69 10 0 66 66 72 83 10 32 -1 28
-39 -14z"/>
<path d="M5050 6940 c-6 -11 -7 -20 -2 -20 10 0 32 21 32 32 0 16 -19 8 -30
-12z"/>
<path d="M4565 4640 c3 -5 11 -10 16 -10 6 0 7 5 4 10 -3 6 -11 10 -16 10 -6
0 -7 -4 -4 -10z"/>
<path d="M5310 5104 c0 -25 60 -47 68 -25 3 10 0 12 -11 8 -9 -3 -23 0 -31 8
-15 16 -26 19 -26 9z"/>
<path d="M3135 3083 c-11 -3 -30 -14 -42 -26 -21 -18 -23 -30 -23 -111 0 -49
5 -106 11 -125 36 -113 30 -106 86 -109 41 -2 56 1 79 21 16 13 38 27 49 32
38 16 161 22 263 12 92 -8 105 -7 122 8 16 14 30 16 73 11 72 -9 109 5 105 41
-3 25 -12 30 -143 75 -186 64 -169 58 -338 122 -141 53 -187 62 -242 49z"/>
<path d="M5925 2740 c-17 -18 -43 -32 -64 -35 -20 -4 -47 -9 -61 -12 -23 -5
-24 -6 -5 -14 11 -4 39 -5 61 -2 66 8 114 -24 114 -76 0 -54 -158 -104 -460
-144 -71 -10 -88 -15 -68 -20 15 -4 82 2 150 13 68 11 154 20 191 20 65 0 69
1 98 35 31 34 60 43 88 26 7 -5 25 -4 42 3 22 8 34 8 49 -2 11 -6 26 -12 33
-12 21 0 47 -34 47 -62 0 -13 -11 -35 -25 -48 l-26 -24 58 -28 c32 -15 74 -30
93 -34 19 -4 53 -15 75 -26 73 -35 140 -58 170 -58 17 0 48 -7 70 -15 52 -19
182 -19 215 0 17 10 20 14 9 15 -9 0 -40 16 -68 35 -28 19 -53 35 -57 35 -3 0
-24 15 -47 33 -23 18 -58 38 -77 44 -39 12 -297 124 -345 149 -44 23 -173 164
-186 202 -13 41 -36 41 -74 2z"/>
<path d="M5703 2673 c9 -2 23 -2 30 0 6 3 -1 5 -18 5 -16 0 -22 -2 -12 -5z"/>
<path d="M5568 2653 c7 -3 16 -2 19 1 4 3 -2 6 -13 5 -11 0 -14 -3 -6 -6z"/>
<path d="M5888 2653 c7 -3 16 -2 19 1 4 3 -2 6 -13 5 -11 0 -14 -3 -6 -6z"/>
<path d="M2630 2941 c0 -15 -3 -50 -7 -77 -5 -41 -4 -47 8 -38 17 13 89 34
116 34 11 0 35 7 52 16 l33 16 -44 21 c-46 21 -138 56 -150 57 -5 0 -8 -13 -8
-29z"/>
<path d="M7320 2876 c-8 -16 -27 -39 -43 -52 -16 -14 -28 -26 -26 -27 7 -5
145 -47 154 -47 5 0 -1 10 -12 23 -21 24 -49 80 -55 111 -3 16 -5 15 -18 -8z"/>
<path d="M6409 2757 l-36 -32 63 -21 63 -21 -19 38 c-11 21 -20 45 -20 54 0
22 -10 18 -51 -18z"/>
<path d="M3350 2680 c-162 -22 -202 -41 -240 -114 -19 -36 -21 -46 -11 -82 15
-55 41 -78 81 -70 16 3 45 9 63 12 17 4 38 11 45 17 23 18 113 47 182 58 36 5
75 17 87 25 12 7 30 14 40 14 10 0 41 9 68 19 59 22 69 49 34 87 -17 18 -33
24 -65 24 -24 0 -46 5 -49 10 -7 11 -150 11 -235 0z"/>
<path d="M4100 2538 c-25 -27 -57 -62 -72 -78 -16 -15 -28 -35 -28 -45 0 -9
-11 -33 -25 -53 -37 -54 -33 -69 13 -42 20 13 100 55 177 95 l140 73 -35 18
c-19 10 -51 30 -70 44 -19 15 -39 29 -45 32 -5 4 -30 -16 -55 -44z"/>
<path d="M4770 1765 l0 -165 40 0 40 0 0 165 0 165 -40 0 -40 0 0 -165z"/>
<path d="M5060 1765 l165 -165 65 0 65 0 -170 165 -170 164 -60 1 -60 0 165
-165z"/>
<path d="M5105 1890 l39 -40 103 0 103 0 0 40 0 40 -142 0 -142 0 39 -40z"/>
<path d="M4900 1640 l0 -40 142 0 142 0 -39 40 -39 40 -103 0 -103 0 0 -40z"/>
<path d="M5400 1765 l0 -165 40 0 40 0 0 165 0 165 -40 0 -40 0 0 -165z"/>
<path d="M5605 1890 l39 -40 128 0 128 0 0 -88 0 -88 40 -39 40 -39 0 167 0
167 -207 0 -207 0 39 -40z"/>
<path d="M5520 1804 l0 -120 43 -42 43 -42 164 0 164 0 -39 40 -39 40 -128 0
-128 0 0 83 0 83 -40 39 -40 39 0 -120z"/>
<path d="M5620 1777 c0 -89 -16 -80 140 -79 52 0 101 -4 108 -10 9 -8 12 6 12
66 l0 76 -118 0 c-78 0 -122 4 -130 12 -9 9 -12 -5 -12 -65z"/>
<path d="M6190 1765 l165 -165 60 0 60 0 -165 165 -165 165 -60 0 -60 0 165
-165z"/>
<path d="M6400 1822 l0 -108 40 -39 40 -39 0 147 0 147 -40 0 -40 0 0 -108z"/>
<path d="M6020 1742 l0 -142 40 0 40 0 0 103 0 103 -40 39 -40 39 0 -142z"/>
<path d="M3603 1863 c4 -38 7 -112 7 -165 l0 -98 162 0 162 0 -39 40 -39 40
-82 0 c-49 0 -86 4 -90 11 -3 6 -3 44 1 85 5 60 10 74 24 74 9 0 72 -56 141
-125 l125 -125 61 0 61 0 -162 165 -163 165 -87 0 -88 0 6 -67z"/>
<path d="M3700 1765 l0 -65 77 0 77 0 -64 65 c-35 36 -70 65 -77 65 -9 0 -13
-19 -13 -65z"/>
<path d="M4150 1765 l0 -165 40 0 40 0 0 165 0 165 -40 0 -40 0 0 -165z"/>
<path d="M4270 1788 l0 -142 40 39 40 39 0 103 0 103 -40 0 -40 0 0 -142z"/>
<path d="M4440 1765 l-165 -165 60 0 60 0 165 165 165 165 -60 0 -60 0 -165
-165z"/>
</g>
</svg>
