<?xml version="1.0" standalone="no"?>
<!DOCTYPE svg PUBLIC "-//W3C//DTD SVG 20010904//EN"
 "http://www.w3.org/TR/2001/REC-SVG-20010904/DTD/svg10.dtd">
<svg version="1.0" xmlns="http://www.w3.org/2000/svg"
 width="300.000000pt" height="300.000000pt" viewBox="0 0 300.000000 300.000000"
 preserveAspectRatio="xMidYMid meet">
<metadata>
Created by potrace 1.10, written by Peter Selinger 2001-2011
</metadata>
<g transform="translate(0.000000,300.000000) scale(0.100000,-0.100000)"
fill="var(#a00114" stroke="none">
<path d="M255 1971 c-6 -5 -27 -14 -48 -21 -43 -13 -57 -34 -57 -84 0 -42 12
-77 35 -99 25 -26 30 -80 10 -139 -9 -29 -20 -55 -24 -58 -7 -5 -49 -71 -69
-107 -6 -12 -14 -39 -18 -60 -4 -30 -2 -42 13 -54 23 -21 71 -30 77 -15 9 21
25 -18 31 -74 13 -117 20 -150 42 -192 9 -19 21 -28 37 -28 46 0 59 36 72 205
8 108 11 115 47 108 18 -4 64 -24 104 -45 52 -27 83 -37 111 -36 21 0 45 -3
52 -7 8 -5 11 -4 7 2 -9 15 16 23 68 23 24 0 47 5 50 10 4 6 12 7 18 3 12 -8
17 -9 37 -12 19 -2 10 -17 -11 -18 -41 -3 -49 -21 -49 -108 0 -54 4 -86 13
-93 19 -16 349 -26 392 -12 19 6 35 16 35 22 0 6 7 8 14 5 10 -4 13 -1 9 9 -6
17 13 19 21 2 3 -7 3 -2 0 11 -5 21 -3 23 15 18 12 -3 18 -1 15 4 -3 5 2 16
10 25 15 14 16 12 16 -19 0 -19 8 -44 18 -56 16 -21 26 -22 188 -23 94 0 175
1 180 4 5 3 59 2 119 -2 130 -7 181 0 201 29 l15 21 27 -25 c20 -18 38 -25 68
-25 53 0 68 18 66 78 -2 63 8 77 56 74 24 -2 59 6 95 21 56 26 138 29 145 7 2
-6 11 -10 21 -10 9 0 21 -4 27 -9 5 -5 63 -37 129 -71 98 -49 126 -60 152 -55
54 10 82 65 97 189 5 47 -16 113 -49 148 -14 15 -25 32 -25 38 0 6 -5 8 -10 5
-5 -3 -10 -2 -10 4 0 6 -25 36 -55 66 -62 64 -68 89 -39 185 9 30 14 71 11 91
-6 47 -51 114 -86 129 -50 20 -80 5 -157 -81 -32 -35 -42 -44 -107 -92 l-37
-28 -16 34 c-31 65 -121 85 -196 45 -71 -40 -78 -45 -71 -51 3 -4 -1 -7 -10
-7 -14 0 -73 -28 -102 -49 -5 -4 -27 -9 -48 -10 -20 -1 -47 -5 -60 -10 -31
-11 -188 -7 -210 5 -9 5 -19 21 -22 33 -12 65 -75 79 -110 25 -16 -25 -27 -31
-59 -32 -21 -1 -45 -7 -52 -13 -15 -12 -244 -19 -244 -7 0 3 -9 4 -20 1 -11
-3 -20 0 -20 6 0 6 -16 11 -35 11 -19 0 -35 -5 -35 -11 0 -6 -7 -9 -15 -5 -8
3 -15 2 -15 -2 0 -4 -14 -13 -31 -19 -26 -10 -36 -10 -53 2 -11 8 -28 15 -38
15 -10 0 -18 4 -18 8 0 5 -24 14 -52 21 -29 8 -57 17 -63 21 -5 5 -13 9 -18 9
-4 0 -30 7 -59 16 -28 8 -69 15 -91 15 -49 0 -175 60 -202 96 -45 60 -124 100
-150 75z m83 -48 c25 -21 42 -45 42 -58 0 -17 10 -24 51 -34 28 -7 69 -27 92
-45 39 -29 44 -31 70 -18 31 15 28 16 230 -56 112 -40 128 -48 125 -66 -2 -17
-13 -22 -58 -28 -30 -4 -87 -6 -126 -3 -56 3 -76 0 -97 -14 -27 -18 -27 -18
50 -14 108 6 157 -5 161 -38 3 -23 -3 -26 -60 -43 -35 -9 -91 -26 -126 -37
-75 -24 -103 -22 -119 10 -9 20 -9 30 3 53 8 16 22 32 30 35 11 4 8 9 -12 20
-24 12 -29 12 -36 -1 -8 -14 -30 -22 -110 -40 -36 -8 -35 -17 5 -41 17 -10 38
-25 45 -32 7 -7 33 -25 58 -39 l44 -26 86 31 c54 20 104 31 137 31 l53 0 29
57 c40 77 124 160 169 169 28 5 45 1 80 -20 25 -15 46 -21 48 -15 4 13 85 31
109 24 11 -4 19 -13 19 -20 0 -10 14 -8 55 11 30 14 65 24 77 22 20 -3 23 -8
20 -38 -1 -19 -10 -40 -20 -47 -9 -7 -26 -19 -37 -28 -11 -8 -28 -21 -39 -28
-18 -13 -17 -15 12 -56 l30 -42 17 53 c10 29 32 85 50 123 18 39 40 87 49 108
16 39 35 47 56 22 20 -25 1 -182 -38 -302 -20 -62 -20 -63 -1 -63 14 0 19 7
19 28 0 33 16 52 44 52 16 0 17 3 8 12 -15 15 -16 55 -1 64 8 4 8 9 0 17 -17
17 -13 52 9 72 16 14 49 19 186 27 157 8 169 10 198 34 55 45 163 113 190 120
37 9 69 -1 100 -33 23 -23 26 -33 21 -62 -4 -18 -13 -43 -20 -55 -7 -12 -18
-40 -25 -64 -6 -24 -14 -50 -17 -58 -3 -8 0 -14 7 -14 7 0 25 -9 41 -21 21
-15 37 -19 59 -14 52 12 91 -30 58 -63 -16 -16 -9 -21 48 -37 27 -7 94 -29
150 -49 92 -32 144 -38 144 -16 0 19 -128 110 -184 130 -107 39 -153 67 -185
113 -47 69 -48 87 -7 136 19 23 56 59 83 80 26 20 61 56 76 78 29 41 77 71 96
58 24 -14 71 -96 71 -122 0 -30 -24 -148 -41 -198 -8 -25 -6 -32 8 -40 31 -18
115 -99 164 -158 46 -55 49 -61 49 -116 0 -76 -27 -158 -58 -179 -23 -15 -28
-14 -95 21 -40 20 -75 37 -80 37 -4 0 -26 12 -50 27 -23 15 -78 41 -121 59
l-79 32 -36 -19 c-20 -10 -42 -19 -50 -19 -8 0 -22 -7 -31 -15 -15 -13 -24
-13 -81 6 -35 11 -93 30 -129 41 -83 26 -131 51 -173 88 -33 29 -35 29 -96 19
-42 -6 -70 -17 -85 -32 -14 -15 -51 -29 -104 -41 -78 -18 -97 -29 -69 -39 11
-4 -1 -8 -69 -22 -62 -13 0 -18 216 -17 213 2 230 1 231 -15 1 -17 2 -17 6 0
3 11 14 17 36 17 24 0 43 -12 84 -52 l53 -52 0 52 c0 51 1 52 30 52 l30 0 0
-85 0 -85 -37 0 c-32 0 -46 8 -90 51 l-53 51 0 -51 0 -51 -127 0 c-104 0 -130
3 -145 17 -17 15 -18 15 -18 0 0 -15 -19 -17 -180 -17 l-180 0 0 77 0 78 -78
-78 c-69 -68 -82 -77 -115 -77 -28 0 -37 4 -38 18 -1 16 -2 16 -6 0 -3 -11
-14 -18 -28 -18 -28 0 -38 35 -33 115 l3 50 58 2 57 3 0 -52 0 -52 54 53 54
53 70 -3 c39 -2 74 0 78 4 4 4 -2 7 -13 7 -27 0 -55 33 -57 68 -1 32 -76 126
-76 96 0 -9 -10 -36 -22 -60 -16 -33 -27 -44 -44 -44 -30 0 -54 25 -54 56 0
13 -3 24 -8 24 -4 0 -45 -22 -92 -50 -68 -40 -94 -50 -130 -49 -59 0 -84 19
-84 64 0 40 0 39 -25 23 -11 -6 -16 -19 -14 -29 6 -22 -30 -39 -80 -39 -18 0
-50 -7 -72 -15 -54 -19 -87 -18 -111 3 -10 9 -48 32 -84 51 -36 19 -76 40 -90
48 -47 25 -53 19 -47 -44 3 -32 0 -112 -6 -178 -11 -113 -13 -120 -34 -123
-29 -4 -38 18 -53 129 -6 46 -16 116 -22 156 l-11 72 -27 -29 c-31 -34 -80
-42 -80 -13 0 26 48 117 84 160 30 35 34 47 43 131 l9 94 -27 19 c-32 23 -46
80 -29 123 9 24 15 28 38 23 21 -4 33 0 45 14 22 26 26 25 75 -18z m2028 -361
c-3 -2 -12 -2 -21 2 -13 5 -14 10 -4 28 l12 22 9 -23 c5 -13 6 -26 4 -29z
m229 -122 c3 -5 -3 -10 -15 -10 -13 0 -19 -4 -14 -11 8 -14 -36 -2 -51 13 -7
7 -2 8 13 3 13 -4 22 -2 22 4 0 14 37 14 45 1z m-695 -82 c0 -4 7 -8 15 -8 8
0 15 -4 15 -10 0 -5 8 -11 18 -11 15 -1 15 -2 -1 -6 -17 -4 -17 -6 4 -21 21
-15 22 -16 3 -23 -15 -6 -169 -4 -232 3 -8 1 0 12 17 25 18 14 28 30 24 36 -3
7 -3 9 2 5 4 -4 17 -1 29 8 22 15 106 17 106 2z m-595 -18 c-3 -5 0 -10 8 -10
7 0 19 -11 25 -24 10 -22 8 -24 -31 -29 -29 -4 -48 -13 -61 -30 l-19 -25 -23
27 c-21 25 -29 28 -80 25 -64 -3 -79 -16 -88 -77 -6 -37 -26 -43 -26 -8 0 10
-7 24 -15 31 -10 9 -15 9 -15 1 0 -16 -17 -13 -24 5 -3 8 -2 12 4 9 6 -3 10
-2 10 2 0 5 18 16 41 26 28 12 39 22 35 32 -4 10 1 15 15 15 11 0 18 4 15 9
-9 15 72 5 98 -13 38 -25 71 -20 98 13 21 28 47 44 33 21z m-301 -65 c-10 -8
-30 -14 -44 -14 -24 1 -24 1 5 14 41 19 65 19 39 0z m-22 -102 c43 -43 78 -81
78 -85 0 -5 -56 -8 -125 -8 l-125 0 0 85 0 85 47 0 c46 0 50 -3 125 -77z"/>
<path d="M280 1905 c0 -25 -23 -35 -34 -16 -7 10 -31 9 -42 -2 -3 -3 -3 -22 0
-42 5 -25 15 -39 37 -50 26 -14 29 -20 24 -48 -3 -18 -7 -67 -9 -110 -2 -63
-7 -81 -24 -97 -25 -24 -85 -110 -80 -115 2 -2 22 8 45 23 35 23 47 38 69 98
23 59 30 69 41 59 7 -7 18 -15 25 -17 10 -4 10 -10 1 -31 -11 -24 -10 -29 13
-52 l25 -25 -28 2 c-15 1 -38 -4 -50 -11 -16 -8 -23 -8 -23 -1 0 6 -5 8 -11 4
-11 -6 -6 -207 6 -276 3 -13 7 -44 9 -69 3 -24 5 -46 5 -49 1 -2 9 6 18 20 12
17 13 25 5 28 -7 2 -12 22 -12 43 0 30 3 38 13 33 9 -6 9 -5 0 7 -8 10 -9 27
-4 50 4 19 6 72 3 118 -4 77 -3 84 13 78 9 -4 29 -10 43 -14 31 -7 189 -89
213 -110 17 -14 81 -15 73 -1 -3 4 5 8 18 9 42 1 123 11 127 15 2 2 -15 4 -39
4 -50 0 -44 11 15 30 22 7 45 16 50 20 6 4 23 10 38 14 38 9 23 28 -16 20 -18
-4 -41 -6 -52 -5 -22 1 -157 -49 -166 -62 -9 -12 -35 1 -151 80 -60 40 -115
73 -124 73 -28 0 -5 18 32 25 20 3 44 10 53 15 9 5 33 12 53 15 56 9 68 26 61
88 -9 84 -21 96 -139 137 -51 18 -61 25 -57 41 3 11 -5 30 -23 49 -35 37 -44
38 -44 5z m39 -62 c15 -36 43 -56 109 -77 29 -10 57 -26 62 -37 7 -13 7 -19 0
-19 -5 0 -10 4 -10 8 0 10 -51 28 -104 38 -46 8 -43 -7 6 -26 85 -32 120 -52
111 -61 -7 -7 -158 -69 -169 -69 -1 0 1 34 4 76 5 80 -7 96 -24 32 -8 -32 -8
-31 -12 17 -2 34 -11 60 -29 83 -14 18 -23 34 -22 36 8 5 54 25 60 25 4 1 12
-11 18 -26z"/>
<path d="M360 1682 c0 -29 0 -29 40 -19 22 6 38 12 37 14 -2 1 -20 9 -40 18
l-37 15 0 -28z"/>
<path d="M2622 1894 c-12 -8 -29 -31 -37 -50 -8 -19 -20 -33 -27 -32 -7 2 -12
-2 -11 -9 2 -7 -7 -18 -20 -24 -25 -14 -106 -86 -108 -97 -1 -4 -5 -6 -9 -5
-29 8 38 -108 73 -125 52 -26 141 -62 154 -62 20 0 69 -35 142 -102 l63 -57
-29 -14 c-43 -22 -81 -29 -102 -18 -10 6 -29 12 -42 15 -13 2 -55 16 -94 31
-38 15 -90 33 -114 39 -53 14 -71 37 -53 66 13 22 3 27 -16 8 -9 -9 -12 -9
-12 1 0 7 -5 9 -10 6 -6 -4 -32 7 -58 23 -61 39 -126 68 -185 83 -59 14 -65
24 -30 43 15 8 39 26 52 40 32 34 50 33 49 -3 -1 -16 8 -44 20 -62 l21 -33 9
24 c26 67 62 166 62 172 0 4 -10 16 -22 28 -28 26 -73 26 -96 -1 -9 -11 -26
-25 -37 -30 -71 -34 -175 -115 -175 -137 0 -14 62 -68 100 -87 19 -10 63 -28
97 -40 35 -12 76 -32 91 -44 15 -12 41 -27 59 -33 46 -17 49 -36 8 -54 -44
-18 -82 -18 -159 2 -53 13 -203 69 -215 80 -2 2 4 13 14 24 18 20 18 20 -6 19
-13 -1 -32 2 -41 6 -13 5 -18 3 -18 -7 0 -12 -21 -17 -92 -22 -51 -4 -119 -7
-150 -6 -51 1 -58 -1 -58 -19 0 -35 51 -37 207 -6 l92 18 34 -36 c37 -40 83
-62 221 -107 92 -30 121 -36 113 -22 -3 4 10 8 28 9 18 1 45 9 59 18 14 10 26
14 26 10 0 -4 6 -2 13 4 21 17 154 -32 244 -89 57 -36 59 -36 59 -6 0 14 -4
22 -8 20 -5 -3 -6 -9 -3 -14 8 -13 -33 1 -46 16 -6 8 -18 14 -27 14 -8 0 -12
3 -9 7 4 3 2 12 -5 20 -13 16 3 14 80 -7 47 -12 93 -6 130 18 32 21 43 6 32
-42 -5 -21 -6 -44 -4 -51 3 -7 0 -16 -7 -21 -8 -5 -11 -2 -7 7 4 11 -4 15 -33
15 -21 1 -46 7 -54 14 -8 7 -15 11 -16 9 0 -2 -2 -11 -4 -19 -1 -9 5 -16 14
-17 64 -6 106 -32 73 -45 -14 -5 -13 -7 5 -7 12 -1 25 3 28 9 13 21 35 123 35
164 0 39 -5 48 -82 127 -96 98 -147 134 -220 153 -95 25 -94 24 -51 65 21 20
47 48 58 61 l20 25 5 -41 c8 -53 38 -103 51 -83 5 8 9 22 9 33 0 10 7 49 16
86 18 75 15 102 -19 142 -21 26 -24 27 -45 12z m37 -58 c11 -20 11 -33 0 -75
-12 -47 -14 -49 -26 -31 -23 33 -55 24 -104 -27 -25 -27 -48 -56 -52 -66 -4
-10 -11 -15 -17 -12 -26 16 -5 52 83 140 50 51 95 93 98 94 3 1 11 -10 18 -23z
m-393 -81 c3 -8 -2 -35 -11 -59 l-18 -45 -19 24 c-11 14 -28 25 -39 25 -23 0
-83 -42 -115 -79 -15 -18 -23 -21 -29 -12 -9 16 0 26 105 100 86 62 116 73
126 46z"/>
<path d="M593 1743 c-14 -5 -16 -61 -4 -102 7 -26 38 -36 58 -19 21 17 94 27
145 19 28 -5 45 -4 42 1 -4 6 11 8 34 7 23 -2 44 0 48 4 4 4 1 7 -7 7 -9 0
-76 20 -151 45 -139 46 -144 47 -165 38z m102 -45 c26 -12 26 -12 -21 -30 -52
-19 -51 -19 -54 2 -6 42 21 53 75 28z"/>
<path d="M1555 1698 c-9 -29 -23 -60 -30 -68 -15 -17 -75 -189 -75 -214 0 -22
-17 -20 -30 4 -6 11 -30 44 -55 74 l-43 53 56 42 c31 22 53 41 48 41 -5 0 2 9
15 19 44 35 12 33 -58 -5 -37 -20 -74 -41 -81 -47 -19 -15 -24 -3 -12 28 13
35 9 39 -35 31 -36 -7 -36 -8 -39 -76 -1 -14 -5 -30 -9 -37 -4 -7 -5 -23 -1
-37 5 -22 2 -26 -23 -32 -31 -8 -161 -72 -210 -105 -37 -23 -40 -17 -21 40 14
41 46 88 98 143 39 42 51 47 43 20 -3 -13 7 -24 36 -40 l41 -23 0 29 c0 16 3
43 6 59 5 26 2 33 -29 52 -51 31 -78 27 -129 -22 -52 -49 -91 -112 -116 -188
-17 -49 -18 -61 -14 -95 1 -7 18 -15 36 -18 30 -6 48 1 131 49 53 30 106 62
119 70 l24 16 -1 -51 c-1 -35 4 -54 14 -60 11 -7 15 -3 17 18 2 15 9 32 16 37
7 6 16 31 20 57 l7 47 59 -69 c33 -38 65 -72 70 -75 8 -5 7 -11 -1 -21 -9 -11
-8 -20 5 -39 21 -32 55 -32 90 0 17 15 47 28 86 35 61 11 136 38 128 46 -3 2
-49 0 -103 -6 -54 -6 -99 -9 -100 -8 -1 2 10 44 26 93 16 50 26 98 23 108 -3
10 0 25 7 33 10 13 24 144 15 144 -2 0 -11 -24 -21 -52z m-421 -85 c11 -27 -5
-35 -28 -14 -17 16 -25 18 -34 9 -7 -7 -12 -8 -12 -3 0 5 -12 -2 -27 -16 l-28
-24 25 29 c40 45 91 54 104 19z m172 -71 c1 -24 -3 -27 -33 -27 -35 0 -36 2
-27 52 6 32 7 33 33 17 17 -10 26 -24 27 -42z m186 -167 c6 -27 -17 -55 -45
-55 -25 0 -22 48 5 70 27 21 34 19 40 -15z"/>
<path d="M1895 1649 c-22 -4 -72 -8 -111 -8 -98 -1 -134 -9 -134 -31 0 -10 9
-20 19 -23 30 -7 200 21 224 38 12 8 31 15 44 15 12 0 25 5 28 10 7 11 -13 11
-70 -1z"/>
<path d="M2561 1647 c-8 -11 -3 -16 24 -24 l34 -11 -16 24 c-18 27 -26 30 -42
11z"/>
<path d="M1920 1606 c-6 -8 -24 -17 -38 -19 -25 -4 -25 -4 4 -6 39 -1 58 -22
49 -52 -6 -19 -4 -21 15 -16 32 8 70 -9 70 -32 0 -11 -5 -23 -11 -27 -19 -11
170 -74 241 -80 l65 -6 -25 21 c-27 23 -141 79 -204 102 -44 16 -136 93 -136
115 0 18 -14 18 -30 0z"/>
<path d="M730 1567 c-3 -3 -27 -7 -54 -10 -57 -5 -92 -38 -74 -70 6 -13 13
-15 21 -8 7 5 14 9 17 9 6 0 76 18 144 38 26 8 55 14 64 14 10 0 13 3 6 10
-10 10 -116 25 -124 17z"/>
<path d="M1835 1552 c-2 -2 -43 -4 -92 -5 -85 -2 -88 -3 -91 -26 l-4 -24 81 7
c45 3 91 11 104 16 12 5 35 11 51 15 15 3 25 9 21 13 -7 7 -64 10 -70 4z"/>
<path d="M1059 1517 c-18 -14 -69 -85 -69 -97 0 -4 34 10 76 32 l76 40 -31 19
c-37 22 -32 22 -52 6z"/>
<path d="M1083 1163 c1 -43 6 -68 15 -71 9 -3 12 15 12 67 0 54 -3 71 -14 71
-11 0 -14 -15 -13 -67z"/>
<path d="M1140 1178 c0 -41 3 -49 12 -40 17 17 17 92 1 92 -9 0 -13 -17 -13
-52z"/>
<path d="M1221 1160 c-50 -47 -69 -70 -57 -70 10 0 50 31 90 70 92 91 64 90
-33 0z"/>
<path d="M1380 1160 c0 -49 4 -70 13 -70 9 0 11 19 9 70 -5 91 -22 91 -22 0z"/>
<path d="M1420 1184 l0 -50 38 4 c20 2 41 4 45 5 4 1 -13 22 -38 47 l-45 44 0
-50z"/>
<path d="M1525 1160 c41 -41 78 -70 90 -70 15 0 1 18 -55 70 -98 90 -125 91
-35 0z"/>
<path d="M1540 1220 c0 -5 23 -10 50 -10 28 0 50 5 50 10 0 6 -22 10 -50 10
-27 0 -50 -4 -50 -10z"/>
<path d="M1674 1160 c-1 -53 2 -70 12 -70 11 0 14 17 14 70 0 49 -4 70 -12 70
-9 0 -13 -21 -14 -70z"/>
<path d="M1775 1220 c3 -5 35 -10 71 -10 l64 0 0 -44 c0 -28 6 -48 16 -57 15
-13 16 -8 11 51 -3 36 -6 66 -7 68 0 1 -36 2 -81 2 -51 0 -78 -4 -74 -10z"/>
<path d="M2057 1160 c48 -46 80 -70 95 -70 l23 1 -25 20 c-14 11 -51 42 -82
70 -85 74 -93 59 -11 -21z"/>
<path d="M2150 1186 c0 -25 5 -48 10 -51 6 -4 10 13 10 44 0 28 -4 51 -10 51
-5 0 -10 -20 -10 -44z"/>
<path d="M1730 1172 c0 -57 23 -74 110 -77 60 -3 69 -1 59 11 -8 9 -33 14 -75
14 l-63 0 -3 42 c-4 55 -28 64 -28 10z"/>
<path d="M1607 1191 l-48 -6 50 -50 51 -49 0 57 c0 31 -1 56 -2 55 -2 0 -25
-4 -51 -7z"/>
<path d="M1970 1145 c0 -41 3 -56 13 -53 19 7 21 82 2 98 -13 11 -15 6 -15
-45z"/>
<path d="M1780 1165 c0 -24 3 -25 55 -25 52 0 55 1 55 25 0 24 -3 25 -55 25
-52 0 -55 -1 -55 -25z"/>
<path d="M1436 1105 c-4 -12 6 -15 62 -15 61 1 65 2 48 15 -27 20 -102 20
-110 0z"/>
<path d="M830 1165 l0 -65 49 0 c27 0 58 -3 68 -7 16 -6 16 -5 4 10 -9 11 -28
17 -57 17 l-44 0 0 45 c0 62 21 60 90 -10 30 -30 61 -55 69 -55 9 0 -13 29
-49 65 -53 54 -70 65 -97 65 l-33 0 0 -65z"/>
<path d="M870 1165 c0 -20 5 -25 27 -25 l26 0 -23 25 c-13 14 -25 25 -27 25
-2 0 -3 -11 -3 -25z"/>
</g>
</svg>
